PathFileType	4	(X/Y/Z)	 s04c0401.trc
DataRate	CameraRate	NumFrames	NumMarkers	Units	OrigDataRate	OrigDataStartFrame	OrigNumFrames
200	200	4	50	mm	200	1251	2000
Frame#	Time	racr			lacr			c7			jug			rlel			rdr			llel			ldr			s2			lic			ric			lasi			rasi			rpsi			lpsi			rgt			lgt			rth1			rth2			rth3			rth4			rlfc			rmfc			rsh1			rsh2			rsh3			rsh4			rlmal			rmmal			rcal			rtoe			rmt5			lth1			lth2			lth4			lth3			llfc			lmfc			lsh1			lsh2			lsh3			lsh4			llmal			lmmal			lcal			ltoe			lmt5			SBIKE			LBIKE			RBIKE			
		X1	Y1	Z1	X2	Y2	Z2	X3	Y3	Z3	X4	Y4	Z4	X5	Y5	Z5	X6	Y6	Z6	X7	Y7	Z7	X8	Y8	Z8	X9	Y9	Z9	X10	Y10	Z10	X11	Y11	Z11	X12	Y12	Z12	X13	Y13	Z13	X14	Y14	Z14	X15	Y15	Z15	X16	Y16	Z16	X17	Y17	Z17	X18	Y18	Z18	X19	Y19	Z19	X20	Y20	Z20	X21	Y21	Z21	X22	Y22	Z22	X23	Y23	Z23	X24	Y24	Z24	X25	Y25	Z25	X26	Y26	Z26	X27	Y27	Z27	X28	Y28	Z28	X29	Y29	Z29	X30	Y30	Z30	X31	Y31	Z31	X32	Y32	Z32	X33	Y33	Z33	X34	Y34	Z34	X35	Y35	Z35	X36	Y36	Z36	X37	Y37	Z37	X38	Y38	Z38	X39	Y39	Z39	X40	Y40	Z40	X41	Y41	Z41	X42	Y42	Z42	X43	Y43	Z43	X44	Y44	Z44	X45	Y45	Z45	X46	Y46	Z46	X47	Y47	Z47	X48	Y48	Z48	X49	Y49	Z49	X50	Y50	Z50	
1251	6.2550	866.928914	1210.855845	-79.903916	846.667401	1245.642713	-418.422299	884.526167	1316.605919	-246.049491	813.385206	1175.946711	-263.995376	578.217715	1153.870383	87.057193	700.992908	940.903838	-40.186210	608.150752	1165.344633	-587.488368	702.076401	947.931864	-474.100674	279.583643	1265.947476	-227.159144	433.520459	1237.909964	-378.127405	426.097505	1228.148492	-57.742849	462.919822	1182.319518	-341.880577	452.082482	1169.453967	-101.303405	317.987126	1298.936630	-179.520766	319.848498	1304.283839	-257.118204	358.120335	1177.461929	-45.941243	385.303065	1156.804750	-410.664858	405.925346	1014.687494	-37.168128	445.424144	937.084683	-54.422833	443.956224	852.880481	-65.589431	478.439706	947.979985	-67.511799	469.862600	709.908731	-99.376652	438.753066	698.796837	-209.682310	405.678747	597.370040	-75.737732	387.907087	509.469083	-94.467721	329.053735	447.274867	-101.284449	417.647864	500.721464	-118.652001	271.004143	306.641335	-111.996732	290.731053	312.320729	-197.397023	198.917049	306.848432	-146.759282	469.397985	171.465836	-155.779937	401.335816	176.888768	-97.313302	425.284385	1079.463263	-422.794661	491.410373	1023.727522	-428.241611	519.521353	1041.306079	-412.350809	521.836490	940.884620	-441.825398	577.739904	799.413684	-429.555547	588.403607	757.269134	-322.221802	486.348297	729.739105	-459.188418	420.455050	676.778398	-438.030102	333.383758	659.135112	-437.828527	435.145057	653.309916	-409.370302	198.493278	599.905122	-435.199453	195.973882	600.041803	-348.819224	144.359987	656.758585	-392.431238	249.194205	371.591475	-400.890976	190.133357	424.824573	-463.070062	-176.814827	938.764099	-278.131578	-3.052618	86.086388	-484.562145	-14.953718	80.492969	-84.143570	
1252	6.2600	866.826179	1212.173830	-81.260489	848.530678	1243.929497	-419.996846	884.607625	1316.595624	-247.745633	812.700980	1175.379123	-264.252746	579.083079	1154.349223	86.950470	701.021685	940.754569	-40.341271	608.934233	1164.864596	-588.996199	701.758160	947.742867	-474.309593	279.436059	1264.655858	-225.157009	431.862639	1238.447415	-377.598656	427.655723	1225.784855	-57.120338	462.076662	1182.546867	-341.887689	453.547633	1167.706903	-101.416484	318.466376	1297.335283	-177.656341	319.379130	1303.550714	-255.087348	358.903306	1174.541306	-45.685276	384.382782	1156.875107	-410.020942	402.904222	1010.774215	-36.468738	440.033573	932.348109	-53.757293	436.005339	848.243702	-65.156888	473.291175	942.394423	-67.073462	458.150361	704.958367	-98.687615	426.731224	693.905706	-208.902209	394.425170	591.805310	-74.711022	377.135592	503.974691	-93.467200	318.612179	441.328067	-100.243198	406.808182	495.291049	-117.654376	262.097083	300.044525	-110.803853	281.099013	306.070612	-196.202041	189.910019	300.327796	-144.771926	460.174941	165.133771	-156.377092	392.915952	170.098149	-97.818025	426.578057	1080.985754	-421.585209	494.080267	1026.815055	-427.138456	522.382417	1044.973680	-410.307354	526.571845	944.900171	-440.676617	585.473602	804.294028	-428.156637	595.698731	762.350979	-321.082153	494.107888	735.364478	-457.891749	428.048610	682.602323	-436.863627	340.626943	665.460166	-436.867690	442.201941	659.208183	-408.289209	205.752247	606.637710	-434.298442	202.995599	606.956184	-347.967034	150.707776	663.100036	-391.770256	258.637896	379.224713	-400.638109	199.194189	431.799239	-462.764421	-176.849334	938.734105	-278.206460	-3.063125	86.051153	-484.583184	-14.946688	80.481168	-84.137850	
1253	6.2650	866.793056	1213.716004	-82.616510	850.508778	1242.021499	-421.427700	884.698018	1316.518607	-249.420418	812.108787	1174.668688	-264.325433	579.849480	1154.897824	86.622016	701.055982	940.515243	-40.477019	609.743130	1164.399111	-590.464029	701.453092	947.618946	-474.333950	279.346602	1263.449730	-223.168990	433.299379	1240.735297	-380.730314	429.383351	1223.645931	-56.286241	461.287510	1182.509995	-341.624046	455.192836	1166.224424	-101.342660	318.960473	1295.789137	-175.463984	318.920104	1302.830347	-252.989124	359.756170	1171.831893	-45.333329	383.448752	1157.122227	-409.338870	399.978140	1007.439367	-35.707534	434.540246	927.973906	-53.123912	427.949430	844.007333	-64.405898	468.067590	936.970098	-66.527023	446.309557	700.352213	-97.937551	414.571564	689.281052	-208.103833	383.282938	586.899438	-73.596728	366.475993	499.020639	-92.481908	308.286971	435.994790	-99.148737	396.108235	490.473393	-116.603218	252.880849	294.055623	-109.414080	271.346900	300.513329	-194.964800	180.792316	294.632286	-142.674606	450.786879	159.143130	-157.657011	384.066855	163.926834	-98.157682	427.789480	1082.731775	-420.416218	496.613115	1030.198919	-426.122406	524.036591	1049.094896	-410.130256	530.941983	949.093711	-439.900799	592.913044	809.774404	-427.115768	603.116243	767.925341	-319.835010	501.891064	741.162526	-456.595138	435.386640	688.605744	-435.761789	348.223175	671.495676	-435.835243	449.825397	665.068046	-407.019935	213.322135	612.879979	-433.501383	210.295714	613.331758	-347.278806	157.299883	668.882557	-391.233442	268.556400	386.286655	-400.250931	208.465191	438.274616	-462.417427	-176.921272	938.715419	-278.436564	-3.083767	86.035029	-484.578037	-14.965658	80.474472	-84.141625	
1254	6.2700	866.841830	1215.477539	-84.008667	852.469483	1239.826503	-422.754179	884.837597	1316.419847	-251.047056	811.543632	1173.923284	-264.224410	580.608643	1155.479100	86.052517	701.156384	940.331491	-40.628532	610.563697	1163.900411	-591.775159	701.124611	947.540489	-474.140759	279.194438	1262.185062	-221.023414	430.872923	1240.848692	-379.517917	431.091316	1221.290732	-55.737007	460.369780	1182.598717	-341.385343	456.415597	1164.295208	-101.470313	319.362321	1294.210937	-173.286970	318.909461	1301.809676	-250.016797	360.968097	1169.384976	-44.655306	382.472648	1157.704889	-408.764824	397.009589	1004.439265	-34.297440	429.408854	923.932304	-52.374792	419.913449	840.195343	-63.511392	462.869529	931.787587	-66.117526	434.505098	696.026983	-97.122824	402.329442	685.080799	-207.290378	372.469837	582.447003	-72.646319	355.887843	494.502955	-91.611929	298.055352	431.250160	-98.055106	385.592401	486.225318	-115.704532	243.421074	288.898106	-108.036897	261.305528	295.729667	-193.656487	171.447261	289.539568	-140.678460	441.203010	153.666228	-158.741185	374.894235	158.166783	-98.446821	428.889951	1084.717698	-419.580100	498.475361	1033.792877	-425.646292	525.854562	1053.336778	-409.540239	535.123105	953.461597	-438.962629	600.153537	815.489590	-426.032904	610.559151	773.802894	-318.533819	509.756215	747.131168	-455.202818	443.180522	694.512774	-434.592280	356.036878	677.436166	-434.992642	457.209329	671.269068	-405.953384	221.257752	618.547972	-432.745085	217.519230	619.301327	-346.274549	164.249208	674.000473	-390.733542	278.733982	392.771740	-399.799172	218.241029	444.143945	-462.195525	-176.904548	938.711275	-278.327836	-3.087975	86.010710	-484.585527	-14.975319	80.482098	-84.149439	
